<svg width="17" height="17" viewBox="0 0 17 17" fill="none" xmlns="http://www.w3.org/2000/svg">
<path d="M8.24265 15.5834C8.08238 15.5834 7.94501 15.5362 7.83053 15.4417C7.71605 15.3473 7.63019 15.2233 7.57295 15.0699C7.35545 14.4088 7.0807 13.789 6.74871 13.2105C6.42817 12.632 5.97598 11.9532 5.39215 11.174C4.80831 10.3949 4.33322 9.65112 3.96689 8.94279C3.61201 8.23446 3.43457 7.37855 3.43457 6.37508C3.43457 4.99383 3.89821 3.82508 4.82548 2.86883C5.7642 1.90078 6.90326 1.41675 8.24265 1.41675C9.58205 1.41675 10.7154 1.90078 11.6427 2.86883C12.5814 3.82508 13.0507 4.99383 13.0507 6.37508C13.0507 7.44939 12.8504 8.34661 12.4497 9.06675C12.0605 9.77508 11.6083 10.4775 11.0932 11.174C10.475 12.024 10.0056 12.7324 9.68508 13.299C9.37598 13.8539 9.11841 14.4442 8.91235 15.0699C8.85511 15.2352 8.76353 15.365 8.6376 15.4595C8.52312 15.5421 8.39147 15.5834 8.24265 15.5834ZM8.24265 13.0511C8.43726 12.6497 8.65477 12.2542 8.89518 11.8647C9.14703 11.4751 9.51336 10.9556 9.99417 10.3063C10.4864 9.64522 10.8871 9.03723 11.1962 8.48237C11.5167 7.91571 11.677 7.21327 11.677 6.37508C11.677 5.39522 11.3393 4.56293 10.6639 3.87821C9.99989 3.18168 9.19282 2.83341 8.24265 2.83341C7.29248 2.83341 6.47969 3.18168 5.80427 3.87821C5.14029 4.56293 4.80831 5.39522 4.80831 6.37508C4.80831 7.21327 4.96285 7.91571 5.27194 8.48237C5.59248 9.03723 5.99888 9.64522 6.49114 10.3063C6.97194 10.9556 7.33255 11.4751 7.57295 11.8647C7.82481 12.2542 8.04804 12.6497 8.24265 13.0511ZM8.24265 8.14592C8.72346 8.14592 9.12986 7.97473 9.46184 7.63237C9.79383 7.29001 9.95982 6.87091 9.95982 6.37508C9.95982 5.87925 9.79383 5.46015 9.46184 5.11779C9.12986 4.77543 8.72346 4.60425 8.24265 4.60425C7.76184 4.60425 7.35545 4.77543 7.02346 5.11779C6.69147 5.46015 6.52548 5.87925 6.52548 6.37508C6.52548 6.87091 6.69147 7.29001 7.02346 7.63237C7.35545 7.97473 7.76184 8.14592 8.24265 8.14592Z" fill="#2BDAA4"/>
</svg>
