<svg width="25" height="25" viewBox="0 0 25 25" fill="none" xmlns="http://www.w3.org/2000/svg">
<path d="M3.125 6.25016L6.25 2.0835H18.75L21.875 6.25016M3.125 6.25016V20.8335C3.125 21.386 3.34449 21.9159 3.73519 22.3066C4.12589 22.6973 4.6558 22.9168 5.20833 22.9168H19.7917C20.3442 22.9168 20.8741 22.6973 21.2648 22.3066C21.6555 21.9159 21.875 21.386 21.875 20.8335V6.25016M3.125 6.25016H21.875M16.6667 10.4168C16.6667 11.5219 16.2277 12.5817 15.4463 13.3631C14.6649 14.1445 13.6051 14.5835 12.5 14.5835C11.3949 14.5835 10.3351 14.1445 9.55372 13.3631C8.77232 12.5817 8.33333 11.5219 8.33333 10.4168" stroke="#1E1E1E" stroke-width="2" stroke-linecap="round" stroke-linejoin="round"/>
</svg>
