<svg width="21" height="20" viewBox="0 0 21 20" fill="none" xmlns="http://www.w3.org/2000/svg">
<path d="M8.94303 7.44812V10.8856C8.52751 10.7716 8.09272 10.756 7.67066 10.8401C7.2486 10.9241 6.85006 11.1058 6.50439 11.3716C6.15871 11.6373 5.87473 11.9804 5.67336 12.3757C5.47198 12.7708 5.35836 13.2081 5.34087 13.655C5.31723 14.0399 5.37297 14.4255 5.50438 14.7861C5.63577 15.1468 5.8398 15.4737 6.1027 15.7455C6.36561 16.0172 6.68133 16.2272 7.02865 16.3612C7.37595 16.4954 7.74682 16.5506 8.11633 16.5232C10.1672 16.5232 10.8918 15.0232 10.8918 13.6163V0H14.1565C14.7118 3.59563 16.438 4.43 18.7517 4.81563V8.26063C18.7517 8.26063 16.0069 8.05749 14.249 6.67751V13.4831C14.2472 16.5626 12.4935 20 8.14094 20C4.10172 20 2.03528 16.4374 2.03528 13.4513C2.06105 12.5665 2.26667 11.6974 2.63862 10.9015C3.01055 10.1055 3.54036 9.40063 4.19309 8.83339C4.84582 8.26614 5.60665 7.84937 6.42539 7.6106C7.24416 7.37182 8.10221 7.31645 8.94303 7.44812Z" fill="#FDFDFD"/>
</svg>
