<svg width="23" height="19" viewBox="0 0 23 19" fill="none" xmlns="http://www.w3.org/2000/svg">
<path fill-rule="evenodd" clip-rule="evenodd" d="M20.3388 4.7286C20.3473 4.9375 20.3502 5.14631 20.3502 5.3552C20.3502 11.6885 15.675 19 7.12567 19C4.49948 19 2.0575 18.2023 0 16.8445C0.363699 16.8825 0.733071 16.911 1.10811 16.911C3.28558 16.911 5.29112 16.1418 6.88195 14.8504C4.84807 14.8219 3.13066 13.4261 2.53835 11.5271C2.8227 11.5841 3.11552 11.6126 3.41499 11.6126C3.83726 11.6126 4.24724 11.5557 4.64023 11.4418C2.51188 11.005 0.908782 9.06803 0.908782 6.7417C0.908782 6.71322 0.908782 6.70366 0.908782 6.68467C1.53604 7.036 2.25399 7.25428 3.01634 7.28276C1.76748 6.4187 0.946548 4.94697 0.946548 3.28531C0.946548 2.41175 1.17516 1.58563 1.57759 0.873486C3.86937 3.77902 7.29573 5.68759 11.1585 5.88699C11.0791 5.53567 11.0385 5.16545 11.0385 4.79513C11.0385 2.14597 13.1196 0 15.6872 0C17.024 0 18.2312 0.579292 19.0786 1.50982C20.1395 1.30093 21.1333 0.902157 22.0326 0.351435C21.684 1.47187 20.9481 2.4117 19.9864 3.00041C20.9273 2.88646 21.8248 2.63029 22.6571 2.25048C22.0326 3.2095 21.2467 4.05444 20.3388 4.7286Z" fill="#FDFDFD"/>
</svg>
